<svg width="203" height="28" viewBox="0 0 203 28" fill="none" xmlns="http://www.w3.org/2000/svg">
<path d="M12.5 1.5L15.3064 10.1373H24.3882L17.0409 15.4754L19.8473 24.1127L12.5 18.7746L5.15268 24.1127L7.95911 15.4754L0.611794 10.1373H9.69357L12.5 1.5Z" fill="#E7DF31"/>
<path d="M47.5 1.5L50.3064 10.1373H59.3882L52.0409 15.4754L54.8473 24.1127L47.5 18.7746L40.1527 24.1127L42.9591 15.4754L35.6118 10.1373H44.6936L47.5 1.5Z" fill="#E7DF31"/>
<path d="M82.5 1.5L85.3064 10.1373H94.3882L87.0409 15.4754L89.8473 24.1127L82.5 18.7746L75.1527 24.1127L77.9591 15.4754L70.6118 10.1373H79.6936L82.5 1.5Z" fill="#E7DF31"/>
<path d="M117.5 1.5L120.306 10.1373H129.388L122.041 15.4754L124.847 24.1127L117.5 18.7746L110.153 24.1127L112.959 15.4754L105.612 10.1373H114.694L117.5 1.5Z" fill="#E7DF31"/>
<path d="M152.5 1.5L155.306 10.1373H164.388L157.041 15.4754L159.847 24.1127L152.5 18.7746L145.153 24.1127L147.959 15.4754L140.612 10.1373H149.694L152.5 1.5Z" fill="#E7DF31"/>
<path d="M189 0L192.143 9.67376H202.315L194.086 15.6525L197.229 25.3262L189 19.3475L180.771 25.3262L183.914 15.6525L175.685 9.67376H185.857L189 0Z" fill="url(#paint0_linear_192_864)"/>
<defs>
<linearGradient id="paint0_linear_192_864" x1="175" y1="14" x2="203" y2="14" gradientUnits="userSpaceOnUse">
<stop stop-color="#E7DF31"/>
<stop offset="1" stop-color="white"/>
</linearGradient>
</defs>
</svg>
