<svg width="21" height="21" viewBox="0 0 21 21" fill="none" xmlns="http://www.w3.org/2000/svg">
<path d="M14.0437 3.89537e-05C10.5828 3.89537e-05 7.79373 2.7891 7.79373 6.25004C7.79373 6.43363 7.82263 6.68207 7.84294 6.90941L1.1531 13.5985C0.787681 13.9615 0.497676 14.3933 0.299778 14.8689C0.101881 15.3444 0 15.8545 0 16.3696C0 16.8847 0.101881 17.3947 0.299778 17.8703C0.497676 18.3459 0.787681 18.7776 1.1531 19.1407C1.51615 19.5061 1.9479 19.7961 2.42348 19.994C2.89906 20.1919 3.40908 20.2938 3.92419 20.2938C4.43931 20.2938 4.94933 20.1919 5.42491 19.994C5.90049 19.7961 6.33223 19.5061 6.69529 19.1407L13.3844 12.4508C13.6109 12.4711 13.8609 12.5 14.0437 12.5C17.5047 12.5 20.2937 9.71098 20.2937 6.25004C20.2978 5.24301 20.0457 4.25148 19.5609 3.36879L19.0726 2.46566L18.3406 3.19848L14.9711 6.54223L13.7508 5.32191L17.0945 1.95316L17.8289 1.22035L16.925 0.73207C16.0419 0.248264 15.0506 -0.00360355 14.0437 3.89537e-05ZM14.0437 1.56254C14.4234 1.56254 14.7062 1.7266 15.0437 1.80707L12.0906 4.7602L11.5281 5.3227L12.0906 5.85941L14.4344 8.20316L14.9719 8.76566L15.5328 8.20316L18.4875 5.25004C18.5679 5.58754 18.7312 5.87035 18.7312 6.25004C18.7312 8.88285 16.6765 10.9375 14.0437 10.9375C13.7312 10.9375 13.4812 10.9375 13.2859 10.8883L12.8719 10.7664L12.5547 11.0844L5.59607 18.043C4.63513 19.0039 3.21326 19.0039 2.25232 18.043L2.22732 18.018C1.28982 17.0571 1.29763 15.6508 2.25076 14.6977L9.20935 7.73988L9.52732 7.4227L9.40388 7.00863C9.35701 6.81332 9.35544 6.56332 9.35544 6.25082C9.35544 3.61801 11.4101 1.56332 14.0429 1.56332L14.0437 1.56254Z" fill="#2ABCBC"/>
</svg>
