<svg width="101" height="25" viewBox="0 0 101 25" fill="none" xmlns="http://www.w3.org/2000/svg">
<path d="M3.72 20C3.24 20 2.8 19.8867 2.4 19.66C2.01333 19.42 1.7 19.1067 1.46 18.72C1.23333 18.32 1.12 17.88 1.12 17.4V8.2C1.12 7.72 1.23333 7.28667 1.46 6.9C1.7 6.5 2.01333 6.18667 2.4 5.96C2.8 5.72 3.24 5.6 3.72 5.6H15.48V7.76H4.02C3.80667 7.76 3.62667 7.83333 3.48 7.98C3.34667 8.11333 3.28 8.28667 3.28 8.5V17.1C3.28 17.3133 3.34667 17.4933 3.48 17.64C3.62667 17.7733 3.80667 17.84 4.02 17.84H15.48V20H3.72ZM18.4853 20V8.4H20.6453V20H18.4853ZM18.4853 6.76V4.6H20.6453V6.76H18.4853ZM23.9394 20V8.4H33.1394C33.6194 8.4 34.0527 8.52 34.4394 8.76C34.8394 9 35.1527 9.31333 35.3794 9.7C35.6194 10.0867 35.7394 10.52 35.7394 11V20H33.5794V11.06C33.5794 10.9267 33.526 10.8133 33.4194 10.72C33.326 10.6133 33.2127 10.56 33.0794 10.56H26.5994C26.466 10.56 26.346 10.6133 26.2394 10.72C26.146 10.8133 26.0994 10.9267 26.0994 11.06V20H23.9394ZM41.1903 20C40.7103 20 40.277 19.88 39.8903 19.64C39.5036 19.4 39.1903 19.0867 38.9503 18.7C38.7103 18.3133 38.5903 17.88 38.5903 17.4V11C38.5903 10.52 38.7103 10.0867 38.9503 9.7C39.1903 9.31333 39.5036 9 39.8903 8.76C40.277 8.52 40.7103 8.4 41.1903 8.4H47.7903C48.2703 8.4 48.7036 8.52 49.0903 8.76C49.4903 8.98667 49.8036 9.3 50.0303 9.7C50.2703 10.1 50.3903 10.5333 50.3903 11V15.28H40.7503V17.34C40.7503 17.4733 40.797 17.5933 40.8903 17.7C40.997 17.7933 41.117 17.84 41.2503 17.84H50.3903V20H41.1903ZM40.7503 13.26H48.2103V11.06C48.2103 10.9267 48.1636 10.8133 48.0703 10.72C47.977 10.6133 47.8636 10.56 47.7303 10.56H41.2503C41.117 10.56 40.997 10.6133 40.8903 10.72C40.797 10.8133 40.7503 10.9267 40.7503 11.06V13.26ZM53.578 20V5.6H66.778V7.76H55.758V11.7H64.618V13.9H55.758V20H53.578ZM68.9111 20V8.4H71.0711V20H68.9111ZM68.9111 6.76V4.6H71.0711V6.76H68.9111ZM77.0423 20C76.5623 20 76.129 19.88 75.7423 19.64C75.3557 19.4 75.0423 19.0867 74.8023 18.7C74.5623 18.3133 74.4423 17.88 74.4423 17.4V4.6H76.6023V17.34C76.6023 17.4733 76.649 17.5933 76.7423 17.7C76.849 17.7933 76.969 17.84 77.1023 17.84H79.2023V20H77.0423ZM81.6738 20V8.4H96.4938C96.9871 8.4 97.4271 8.52 97.8138 8.76C98.2004 9 98.5071 9.31333 98.7338 9.7C98.9738 10.0867 99.0938 10.52 99.0938 11V20H96.9538V11.06C96.9538 10.9267 96.9004 10.8133 96.7938 10.72C96.7004 10.6133 96.5871 10.56 96.4538 10.56H91.9938C91.8471 10.56 91.7271 10.6133 91.6338 10.72C91.5404 10.8133 91.4938 10.9267 91.4938 11.06V20H89.3138V11.06C89.3138 10.9267 89.2604 10.8133 89.1538 10.72C89.0604 10.6133 88.9471 10.56 88.8138 10.56H84.3338C84.2004 10.56 84.0871 10.6133 83.9938 10.72C83.9004 10.8133 83.8538 10.9267 83.8538 11.06V20H81.6738Z" fill="url(#paint0_linear_192_883)"/>
<defs>
<linearGradient id="paint0_linear_192_883" x1="-4.18609e-07" y1="7" x2="74.5" y2="20" gradientUnits="userSpaceOnUse">
<stop offset="0.293838" stop-color="#7700FF"/>
<stop offset="0.934504" stop-color="#2ABCBC"/>
</linearGradient>
</defs>
</svg>
